<svg width="297" height="111" viewBox="0 0 297 111" fill="none" xmlns="http://www.w3.org/2000/svg">
<path d="M47.021 7.11331C22.4103 -11.8229 -6.02079 14.2037 2.28253 29.1432L18.8892 55.7202L2.28258 82.2972C-6.02071 97.2367 22.4157 123.258 47.021 104.327L65.471 90.141C90.0764 71.2102 90.0817 40.2357 65.471 21.3102L47.021 7.11331ZM249.976 7.10282C274.582 -11.828 303.023 14.2093 294.72 29.1382L278.114 55.7151L294.72 82.3028C303.023 97.2316 274.582 123.258 249.976 104.327L231.526 90.1305C206.921 71.1996 206.916 40.2252 231.526 21.2996L249.976 7.10282Z" fill="#67308F"/>
<path d="M239.098 15.4702L231.521 21.2942C206.916 40.2251 206.91 71.1995 231.521 90.1251L235.55 93.2241C242.785 83.1255 247.38 68.186 247.38 51.4725C247.39 37.6978 244.248 25.1306 239.098 15.4702ZM63.3605 91.7599L65.471 90.141C90.0764 71.2102 90.0817 40.2357 65.471 21.3102L59.9729 17.0836C55.3243 26.509 52.5299 38.4617 52.5352 51.483C52.5299 67.4004 56.7136 81.7041 63.3605 91.7599Z" fill="#52197B"/>
</svg>
