<svg viewBox="0 0 133 266" fill="none" xmlns="http://www.w3.org/2000/svg">
<path d="M83.0405 203.512C83.0405 203.512 93.8597 208.591 118.81 199.096C124.551 196.888 103.796 222.28 100.705 226.475C104.9 222.501 137.578 196.447 124.772 193.135C116.823 191.147 96.9509 198.213 94.0805 196.667L83.0405 203.512" fill="#75676D"/>
<path d="M81.9365 203.513C81.9365 203.513 95.8469 205.941 116.381 199.097C122.343 197.109 103.796 222.281 100.705 226.697C104.9 222.722 134.487 197.772 121.681 194.46C113.732 192.473 95.6261 197.551 92.9765 196.226L81.9365 203.513Z" fill="#5B4C52"/>
<path d="M38.4404 196.667C35.7908 198.213 15.9188 191.147 7.96998 193.135C-4.83644 196.447 27.842 222.501 32.0372 226.475C28.946 222.059 8.19078 196.667 13.9316 199.096C38.882 208.811 49.7012 203.512 49.7012 203.512L38.4404 196.667Z" fill="#75676D"/>
<path d="M39.7655 196.006C36.8951 197.331 19.0102 192.252 11.0614 194.24C-1.745 197.552 27.8422 222.502 32.0374 226.476C28.9462 222.06 10.399 196.889 16.3606 198.876C36.6743 205.721 50.8055 203.292 50.8055 203.292L39.7655 196.006Z" fill="#5B4C52"/>
<path opacity="0.6" d="M63.77 0H68.7521V176.365H63.77V0Z" fill="#A6AEB0"/>
<path d="M105.343 201.305C105.343 216.098 87.8993 226.034 66.2609 226.034C44.6224 226.034 27.1792 216.098 27.1792 201.305C27.1792 174.588 66.2609 165.535 66.2609 165.535C66.2609 165.535 105.343 174.588 105.343 201.305Z" fill="#5B4C52"/>
<path d="M83.9262 179.444C83.9262 179.444 75.9774 177.457 66.2622 177.457C56.547 177.457 48.5981 179.444 48.5981 179.444C48.5981 179.444 56.547 172.82 66.2622 172.82C75.9774 172.82 83.9262 179.444 83.9262 179.444Z" fill="#E24B4B"/>
<path d="M83.9262 184.965C83.9262 184.965 75.9774 182.315 66.2622 182.315C56.547 182.315 48.5981 184.965 48.5981 184.965C48.5981 184.965 56.547 177.237 66.2622 177.237C75.9774 177.237 83.9262 184.965 83.9262 184.965Z" fill="#E24B4B"/>
<path d="M84.8096 231.554C84.8096 231.554 96.7328 235.528 121.242 222.059C126.982 218.968 108.877 248.114 106.227 252.971C109.981 248.334 140.23 216.981 126.541 215.214C117.93 214.11 98.2784 224.267 95.408 223.163L84.8096 231.554Z" fill="#75676D"/>
<path d="M83.4829 231.554C83.4829 231.554 98.2765 232.216 118.59 222.28C124.552 219.41 108.875 248.114 106.005 252.972C109.758 248.114 137.137 218.306 123.448 216.76C114.837 215.656 96.9517 223.605 93.8605 222.501L83.4829 231.554" fill="#5B4C52"/>
<path d="M37.3362 222.942C34.245 224.046 14.5938 214.11 5.98255 215.214C-7.70707 216.981 22.5426 248.334 26.2962 253.192C23.6466 248.334 5.54095 219.189 11.2818 222.28C35.7906 235.749 47.7138 231.774 47.7138 231.774L37.3362 222.942Z" fill="#75676D"/>
<path d="M38.6617 222.5C35.5705 223.604 17.6857 215.876 9.07447 216.759C-4.61515 218.526 22.5433 248.334 26.5177 252.971C23.8681 248.113 8.19127 219.409 13.9321 222.279C34.0249 232.215 49.0393 231.553 49.0393 231.553L38.6617 222.5" fill="#5B4C52"/>
<path d="M85.25 239.062C85.25 239.062 95.4068 246.348 122.786 240.828C129.189 239.503 103.135 261.804 99.1604 265.779C104.239 262.246 142.437 241.491 130.072 235.75C122.124 232.217 98.2772 235.971 95.6276 233.983L85.25 239.062" fill="#75676D"/>
<path d="M84.146 238.621C84.146 238.621 98.0564 243.699 120.357 240.166C126.76 239.283 103.356 261.805 99.1604 265.779C104.239 262.246 139.125 242.153 126.76 236.413C118.812 233.101 97.1732 235.088 94.5236 233.101L84.146 238.621" fill="#5B4C52"/>
<path d="M36.895 233.983C34.2454 235.971 10.399 232.217 2.45018 235.75C-9.91464 241.711 28.2838 262.467 33.3622 265.999C29.3878 262.025 3.33338 239.724 9.73659 241.049C37.1158 246.348 47.2726 239.283 47.2726 239.283L36.895 233.983" fill="#75676D"/>
<path d="M37.9986 233.101C35.349 235.088 13.7106 233.101 5.76176 236.633C-6.82386 242.374 28.2834 262.467 33.3618 266C29.3874 262.025 5.76176 239.283 12.165 240.387C34.4658 243.699 48.3762 238.841 48.3762 238.841L37.9986 233.101" fill="#5B4C52"/>
<path d="M76.8594 244.139C76.8594 244.139 81.9378 249.88 99.381 250.543C103.355 250.763 84.5874 260.479 81.4962 262.245C85.029 260.92 111.083 253.634 104.459 248.335C100.264 245.023 86.5746 244.139 85.2498 242.594L76.8594 244.139Z" fill="#75676D"/>
<path d="M76.1978 243.699C76.1978 243.699 83.9258 248.778 97.8362 249.882C101.811 250.103 84.3674 260.48 81.497 262.467C85.0298 261.143 109.097 253.856 102.252 248.557C98.057 245.245 85.913 243.699 84.5882 242.154L76.1978 243.699" fill="#5B4C52"/>
<path d="M47.2742 242.374C45.9494 243.919 32.2597 244.802 28.0645 248.114C21.2197 253.414 47.495 260.479 51.0278 262.025C47.9366 260.258 29.1685 250.322 33.143 250.322C50.5862 249.66 55.6646 243.919 55.6646 243.919L47.2742 242.374Z" fill="#75676D"/>
<path d="M47.7131 241.711C46.3883 243.257 34.465 244.802 30.049 248.114C23.2042 253.413 47.2715 260.7 50.8043 262.025C47.7131 260.258 30.2698 249.881 34.465 249.439C48.3755 248.335 56.1035 243.257 56.1035 243.257L47.7131 241.711" fill="#5B4C52"/>
<path d="M66.2591 250.764C83.2094 250.764 96.9504 239.693 96.9504 226.035C96.9504 212.377 83.2094 201.305 66.2591 201.305C49.3088 201.305 35.5679 212.377 35.5679 226.035C35.5679 239.693 49.3088 250.764 66.2591 250.764Z" fill="#5B4C52"/>
<path d="M77.0799 233.983C82.3235 233.983 86.5743 229.633 86.5743 224.267C86.5743 218.902 82.3235 214.552 77.0799 214.552C71.8362 214.552 67.5854 218.902 67.5854 224.267C67.5854 229.633 71.8362 233.983 77.0799 233.983Z" fill="#FFE62E"/>
<path d="M77.0805 230.893C80.6169 230.893 83.4837 227.927 83.4837 224.269C83.4837 220.61 80.6169 217.645 77.0805 217.645C73.5441 217.645 70.6772 220.61 70.6772 224.269C70.6772 227.927 73.5441 230.893 77.0805 230.893Z" fill="#3F3438"/>
<path d="M55.4427 233.983C60.6863 233.983 64.9371 229.633 64.9371 224.267C64.9371 218.902 60.6863 214.552 55.4427 214.552C50.199 214.552 45.9482 218.902 45.9482 224.267C45.9482 229.633 50.199 233.983 55.4427 233.983Z" fill="#FFE62E"/>
<path d="M61.846 224.269C61.846 228.022 58.9756 230.893 55.4428 230.893C51.91 230.893 49.0396 228.022 49.0396 224.269C49.0396 220.515 51.91 217.645 55.4428 217.645C58.9756 217.645 61.846 220.515 61.846 224.269Z" fill="#3F3438"/>
<path d="M72.4449 238.399C72.4449 236.191 69.7953 237.958 66.2625 237.958C62.7297 237.958 60.0801 236.191 60.0801 238.399C60.0801 240.607 62.7297 242.153 66.2625 242.153C69.7953 242.153 72.4449 240.386 72.4449 238.399Z" fill="white"/>
</svg>
