<svg viewBox="0 0 86 86" fill="none" xmlns="http://www.w3.org/2000/svg">
<path d="M20.8158 78.8004L21.7542 77.3452C31.3856 73.8691 42.3018 75.968 50.0155 82.6497L50.3452 84.1763C50.4147 84.4984 50.6093 84.7796 50.8862 84.9582C51.1631 85.1367 51.4996 85.198 51.8217 85.1284C52.1437 85.0589 52.425 84.8642 52.6035 84.5874C52.7821 84.3105 52.8433 83.974 52.7738 83.6519L52.4301 82.0603C54.5367 77.4751 57.8265 73.5337 61.9611 70.6412C66.0958 67.7487 70.9262 66.0095 75.9558 65.6024L77.411 66.5408C77.5903 66.6564 77.786 66.703 77.9853 66.7176L78.061 66.7169C78.4757 66.7241 78.8866 66.5439 79.1275 66.1702C79.3685 65.7965 79.3632 65.3479 79.1855 64.973L79.1548 64.9038C79.0627 64.7223 78.9258 64.5673 78.7569 64.4537L77.3017 63.5153C75.5972 58.7659 75.1884 53.6483 76.1172 48.6886C77.046 43.7289 79.279 39.106 82.5865 35.2952L84.1756 34.9521C84.4977 34.8826 84.7789 34.6879 84.9575 34.411C85.136 34.1341 85.1973 33.7976 85.1277 33.4756C85.0582 33.1535 84.8636 32.8723 84.5867 32.6938C84.3098 32.5152 83.9733 32.454 83.6512 32.5235L82.1271 32.8526C72.8548 28.5812 66.4416 19.5057 65.634 9.29834L66.5725 7.84311C66.6611 7.70614 66.7218 7.55303 66.7512 7.39255C66.7805 7.23207 66.7779 7.06738 66.7435 6.90791C66.709 6.74845 66.6434 6.59734 66.5505 6.46327C66.4576 6.32919 66.3391 6.21478 66.2018 6.12659C66.0087 6.00879 65.7861 5.94805 65.5599 5.95139C65.3489 5.94197 65.1391 5.98728 64.9508 6.08293C64.7625 6.17857 64.6021 6.3213 64.4853 6.49724L63.5469 7.95248C53.9155 11.4286 42.9993 9.32961 35.2856 2.64794L34.9565 1.12382C34.8869 0.801767 34.6923 0.52053 34.4154 0.341977C34.1385 0.163424 33.802 0.10218 33.48 0.171721C33.1579 0.241262 32.8767 0.435889 32.6981 0.712787C32.5195 0.989686 32.4583 1.32617 32.5278 1.64823L32.8715 3.23981C30.7648 7.82544 27.4747 11.7672 23.3395 14.6599C19.2044 17.5525 14.3734 19.2915 9.34337 19.6982L7.88812 18.7599C7.7149 18.653 7.51722 18.5921 7.31387 18.5831L7.23817 18.5838C7.02847 18.5761 6.82031 18.6223 6.63358 18.7181C6.44684 18.8138 6.28778 18.9558 6.17158 19.1305C6.06013 19.3084 5.99627 19.5119 5.98612 19.7215C5.97598 19.9311 6.01989 20.1399 6.11365 20.3276L6.14429 20.3969C6.23638 20.5784 6.37336 20.7333 6.54222 20.847L7.99747 21.7854C9.70192 26.5347 10.1108 31.6523 9.18193 36.6121C8.25311 41.5718 6.02016 46.1947 2.71263 50.0055L1.12352 50.3486C0.801797 50.4181 0.520845 50.6125 0.342471 50.8891C0.164098 51.1657 0.102915 51.5018 0.172383 51.8236C0.241851 52.1453 0.436279 52.4262 0.712895 52.6046C0.989511 52.783 1.32566 52.8442 1.64738 52.7747L3.17403 52.445C12.4463 56.7164 18.8595 65.7919 19.667 75.9993L18.7286 77.4545C18.6159 77.6333 18.5516 77.8383 18.5422 78.0494C18.5327 78.2606 18.5784 78.4705 18.6748 78.6586C18.7701 78.8577 18.9013 79.0412 19.0993 79.1711C19.6765 79.5433 20.4436 79.3776 20.8158 78.8004V78.8004ZM11.1996 23.8502L17.9017 28.1719C18.9091 31.5641 19.0911 35.1479 18.4328 38.6247C17.822 41.7884 16.5445 44.7859 14.6854 47.4176L6.43751 49.1985C6.68049 48.8584 6.98676 48.4602 7.20814 48.1169C9.49498 44.5588 11.0289 40.5701 11.7154 36.3966C12.4019 32.2231 12.2263 27.9533 11.1996 23.8502V23.8502ZM45.836 37.739C46.2912 39.181 47.1036 40.4726 48.2103 41.5046C47.9321 42.1609 47.7355 42.8488 47.6249 43.553C47.5263 44.3183 47.5292 45.0932 47.6335 45.8576C46.909 46.0873 46.2025 46.3758 45.5451 46.795C44.9554 47.1831 44.4151 47.6413 43.9359 48.1597C43.2469 47.8568 42.5215 47.6443 41.7779 47.5273C41.0153 47.4282 40.2428 47.4306 39.4808 47.5343C39.0353 46.114 38.2335 44.8313 37.1517 43.8087C37.4185 43.1549 37.6358 42.4777 37.7371 41.7602C37.8477 40.9885 37.8215 40.2253 37.7293 39.4711C38.4593 39.2429 39.1703 38.9508 39.8321 38.5281C40.4414 38.1402 40.9691 37.6654 41.4546 37.1526C42.8409 37.7195 44.3494 37.9214 45.836 37.739V37.739ZM35.2935 45.5096C35.478 45.6738 35.6734 45.8277 35.8367 46.0147C36.3933 46.6424 36.8106 47.3761 37.0769 48.1737C37.1437 48.3737 37.1665 48.5884 37.2113 48.7958L34.1864 53.4866C33.7145 52.4058 33.163 51.3614 32.5364 50.3623C31.6981 49.0593 30.7329 47.8425 29.6547 46.7298L35.2941 45.5121L35.2935 45.5096ZM39.3273 50.0936C39.5102 50.0567 39.6872 49.9924 39.877 49.9749C40.3861 49.9225 40.9008 49.9082 41.4219 49.9839C41.7861 50.036 42.136 50.1305 42.4767 50.2426C42.6848 50.3101 42.8754 50.418 43.0748 50.5057L44.2979 56.1699C42.8392 55.6475 41.3326 55.2703 39.7999 55.0439C38.6312 54.8854 37.4524 54.8139 36.2731 54.83L39.3273 50.0936V50.0936ZM46.7434 55.736L45.5306 50.1192C45.7188 49.9008 45.9009 49.6784 46.1166 49.4906C46.7424 48.9371 47.4761 48.5198 48.2707 48.2514C48.4557 48.1879 48.656 48.1709 48.8478 48.1268L53.5235 51.1418C52.4426 51.6137 51.3982 52.1652 50.3991 52.7918C49.0897 53.6548 47.8656 54.6407 46.7434 55.736V55.736ZM50.2028 46.0455C50.1622 45.8451 50.0946 45.6531 50.0739 45.4484C50.0215 44.9393 50.0096 44.4241 50.0829 43.9035C50.1306 43.5794 50.2206 43.2697 50.3137 42.962C50.3949 42.696 50.5189 42.447 50.6324 42.1976L56.2568 40.9831C55.7223 42.4577 55.3285 43.9796 55.0808 45.5283C54.9222 46.697 54.8508 47.8759 54.8669 49.0552L50.2028 46.0455V46.0455ZM50.0211 39.7903C49.8463 39.6346 49.6611 39.4915 49.5035 39.3189C48.9294 38.6788 48.493 37.9274 48.2214 37.1115C48.1558 36.9164 48.134 36.7067 48.0903 36.5043L51.1093 31.8226C51.5859 32.8913 52.1188 33.9425 52.7594 34.947C53.6043 36.2682 54.5758 37.4732 55.641 38.5795L50.0217 39.7928L50.0211 39.7903ZM45.99 35.1822C45.7996 35.2207 45.6145 35.2842 45.4228 35.3047C44.5801 35.3954 43.7278 35.3134 42.9178 35.0637C42.677 34.9901 42.4507 34.8743 42.2189 34.77L41.0024 29.1358C42.4466 29.6477 43.9481 30.0373 45.5003 30.2618C46.6795 30.4308 47.857 30.4825 49.0271 30.4757L45.99 35.1822ZM38.5532 29.5652L39.7844 35.2669C39.6099 35.4641 39.4445 35.6672 39.2466 35.8407C39.0121 36.0553 38.7617 36.2518 38.4975 36.4287C38.0583 36.7012 37.5868 36.9181 37.094 37.0743C36.899 37.14 36.6962 37.1576 36.4969 37.2033L31.7726 34.1569C32.8535 33.685 33.8978 33.1335 34.897 32.5069C36.2079 31.6466 37.4323 30.6615 38.5532 29.5652V29.5652ZM35.1606 39.2988C35.1997 39.4917 35.2637 39.6792 35.2853 39.876C35.3719 40.7109 35.29 41.5547 35.0444 42.3574C34.9655 42.6097 34.8468 42.8472 34.7372 43.0905L29.0404 44.3206C29.5425 42.8916 29.9946 41.3034 30.2164 39.7754C30.3854 38.5961 30.4371 37.4186 30.4303 36.2485L35.1606 39.2988V39.2988ZM30.4445 51.6952C31.3254 53.0741 32.0095 54.5346 32.5383 56.0391L31.3237 57.9227L28.0441 63.0085C27.3094 60.0817 26.0462 57.3138 24.3166 54.8411C22.7631 52.6323 20.8593 50.692 18.6803 49.0968L26.7358 47.3574C28.1634 48.6282 29.4111 50.0875 30.4445 51.6952V51.6952ZM33.4108 59.2686L34.6255 57.385C36.2315 57.2371 37.8492 57.2756 39.4464 57.4999C41.3377 57.7756 43.1822 58.3101 44.928 59.0882L46.6674 67.1436C44.3154 65.8167 41.7623 64.8831 39.1092 64.3797C36.1431 63.8246 33.1005 63.816 30.1313 64.3544L33.4108 59.2686V59.2686ZM49.1118 66.7047L47.3752 58.6618C48.6547 57.2149 50.1206 55.9443 51.7345 54.8832C53.097 54.0202 54.5547 53.3175 56.0785 52.7894L63.0479 57.2834C60.1211 58.0181 57.3532 59.2814 54.8804 61.0109C52.6697 62.5932 50.7228 64.5148 49.1118 66.7047V66.7047ZM59.3111 51.9188L57.4275 50.7042C57.2795 49.0982 57.3181 47.4804 57.5424 45.8833C57.8144 43.9941 58.4351 42.0609 59.1857 40.3533L67.2287 38.6166C65.8961 40.9873 64.949 43.5548 64.4228 46.223C63.8676 49.189 63.859 52.2316 64.3974 55.2007L59.3111 51.9188ZM58.5638 37.9457C57.1347 36.6766 55.8868 35.217 54.8552 33.6079C53.9922 32.2455 53.2896 30.7879 52.7614 29.264L53.976 27.3804L57.2555 22.2947C57.9902 25.2214 59.2535 27.9894 60.983 30.4621C62.559 32.7107 64.4709 34.6253 66.6193 36.2063L58.5638 37.9457V37.9457ZM51.8863 26.0351L50.6717 27.9187C49.0657 28.0666 47.4479 28.0281 45.8508 27.8038C43.9594 27.5281 42.115 26.9936 40.3692 26.2155L38.6293 18.1576C40.9812 19.4846 43.5343 20.4182 46.1875 20.9215C49.1536 21.4766 52.1961 21.4852 55.1653 20.9469L51.8863 26.0351V26.0351ZM36.1848 18.5965L37.9215 26.6394C36.6419 28.0863 35.176 29.3569 33.5621 30.418C32.1832 31.2989 30.7227 31.983 29.2181 32.5119L27.3345 31.2973L22.2487 28.0178C25.1755 27.2831 27.9435 26.0198 30.4162 24.2903C32.6284 22.7097 34.5755 20.7879 36.1848 18.5965V18.5965ZM27.8722 34.599C28.0201 36.205 27.9816 37.8227 27.7573 39.4199C27.4853 41.3091 26.8645 43.2423 26.114 44.9499L18.071 46.6866C19.4035 44.3159 20.3507 41.7484 20.8769 39.0802C21.432 36.1141 21.4406 33.0716 20.9023 30.1025L27.8722 34.599V34.599ZM8.13762 52.2519C7.77912 52.0208 7.39516 51.8291 7.02937 51.6126L15.2847 49.83C18.1965 51.5308 20.6841 53.8704 22.5598 56.6726C24.4355 59.4748 25.6505 62.6664 26.113 66.0065L24.1945 68.9783L21.7868 72.7121C21.0297 68.5503 19.4281 64.5878 17.0806 61.0689C14.7331 57.55 11.6895 54.5493 8.13762 52.2519V52.2519ZM48.1434 78.0487C44.5848 75.762 40.5956 74.2282 36.4217 73.5418C32.2477 72.8555 27.9774 73.0311 23.874 74.058L26.2817 70.3242L28.1957 67.356C31.4293 66.3998 34.8377 66.19 38.1641 66.7424C41.4905 67.2947 44.6481 68.5948 47.3991 70.5447L49.1816 78.8C48.8344 78.5481 48.5013 78.2774 48.1434 78.0487V78.0487ZM52.2911 77.1897C52.0697 77.533 51.8339 77.9788 51.6238 78.338L49.8429 70.0903C51.4728 67.3107 53.6762 64.9103 56.3063 63.0487C59.203 61.0167 62.5421 59.704 66.0471 59.2195L72.7491 63.5412C68.5881 64.2994 64.6264 65.9015 61.1079 68.2488C57.5895 70.5961 54.589 73.6389 52.2911 77.1897V77.1897ZM74.0975 61.4535L70.3637 59.0458L67.3955 57.1318C66.3881 53.7396 66.206 50.1558 66.8644 46.679C67.4752 43.5153 68.7526 40.5179 70.6118 37.8861L78.8597 36.1052C78.6167 36.4453 78.3104 36.8435 78.089 37.1868C75.8022 40.7449 74.2683 44.7336 73.5818 48.9071C72.8953 53.0806 73.0708 57.3504 74.0975 61.4535V61.4535ZM77.1595 33.0518C77.518 33.283 77.902 33.4746 78.2678 33.6911L70.0124 35.4737C67.1007 33.773 64.6131 31.4333 62.7374 28.6311C60.8616 25.8289 59.6467 22.6374 59.1842 19.2972L61.0982 16.329L63.5059 12.5952C64.2661 16.7559 65.8696 20.7172 68.2177 24.2352C70.5657 27.7532 73.6088 30.7536 77.1595 33.0518V33.0518ZM37.1538 7.25499C40.7124 9.54175 44.7015 11.0756 48.8755 11.7619C53.0494 12.4483 57.3197 12.2726 61.4232 11.2457L59.0155 14.9795L57.1014 17.9477C53.8679 18.9039 50.4595 19.1137 47.1331 18.5613C43.8067 18.009 40.649 16.7089 37.898 14.759L36.1166 6.50876C36.4623 6.75316 36.7958 7.02633 37.1538 7.25499V7.25499ZM33.0061 8.11399C33.2274 7.77068 33.4633 7.32488 33.6734 6.96571L35.4543 15.2135C33.8243 17.993 31.621 20.3935 28.9909 22.255C26.0942 24.287 22.7551 25.5997 19.2501 26.0842L16.2794 24.1708L12.5455 21.7631C16.707 21.005 20.6692 19.4029 24.1881 17.0555C27.7069 14.7081 30.7079 11.6651 33.0061 8.11399V8.11399Z" fill="#BCBCBC"/>
</svg>
