<svg width="14" height="13" viewBox="0 0 14 13" fill="none" xmlns="http://www.w3.org/2000/svg">
<path d="M0 6.29937L3.49927 9.09878V6.99922H9.79795V5.59951H3.49927V3.49995L0 6.29937Z" fill="black" fill-opacity="0.5"/>
<path d="M7.69889 2.40478e-05C6.87134 -0.00227056 6.05155 0.159668 5.28702 0.476459C4.52249 0.79325 3.82843 1.2586 3.24503 1.84554L4.23462 2.83513C5.15982 1.90993 6.39017 1.39973 7.69889 1.39973C9.00762 1.39973 10.238 1.90993 11.1632 2.83513C12.0884 3.76034 12.5986 4.99068 12.5986 6.29941C12.5986 7.60813 12.0884 8.83848 11.1632 9.76369C10.238 10.6889 9.00762 11.1991 7.69889 11.1991C6.39017 11.1991 5.15982 10.6889 4.23462 9.76369L3.24503 10.7533C4.43408 11.943 6.01575 12.5988 7.69889 12.5988C9.38204 12.5988 10.9637 11.943 12.1528 10.7533C13.3425 9.56423 13.9983 7.98256 13.9983 6.29941C13.9983 4.61626 13.3425 3.03459 12.1528 1.84554C11.5694 1.2586 10.8753 0.79325 10.1108 0.476459C9.34624 0.159668 8.52645 -0.00227056 7.69889 2.40478e-05Z" fill="black" fill-opacity="0.5"/>
</svg>
