<svg viewBox="0 0 36 41" fill="none" xmlns="http://www.w3.org/2000/svg">
<path d="M19.9063 13.6525C19.6191 13.6238 19.332 13.5951 19.0449 13.5377C17.2648 13.2218 15.5995 12.4179 14.25 11.1833C10.3165 8.1542 5.62209 4.33551 3.22465 0.01437H2.72219C0.640577 0.01437 -0.665815 2.2539 0.353458 4.06275C2.24844 7.40769 4.91865 10.2502 8.13439 12.3461C9.22544 13.1931 10.5749 13.6525 11.9531 13.6525H19.9063Z" fill="#0074BA"/>
<path d="M19.0577 13.3424L18.225 7.49381L14.4781 1.3351C14.0044 0.502459 13.1143 0 12.1524 0H9.02715L17.9494 13.6037C17.8123 13.6224 17.675 13.6387 17.5374 13.6525V13.6669H24.0406C25.4331 13.6669 26.7682 13.2075 27.8593 12.3605C31.0848 10.2694 33.7549 7.42701 35.6402 4.07709C36.6738 2.25388 35.3531 0.0143559 33.2858 0.0143559H32.7834C28.8929 4.07709 24.2559 8.15418 20.3224 11.1833C19.7223 11.7317 19.6276 12.1954 19.5515 12.5686C19.4826 12.8988 19.4295 13.1572 19.0577 13.3439V13.3424Z" fill="#F8312F"/>
<path d="M18.8064 11.5709L19.0648 13.3941C20.6034 13.0117 22.0224 12.2519 23.1936 11.1833C27.1271 8.15418 30.3859 4.3355 32.7834 0.0143559L26.2227 0.0143559L18.8064 11.5709ZM18.5365 13.6525H18.4705L18.7576 13.9971L18.5365 13.6525ZM17.9537 13.608C17.8144 13.6252 17.6752 13.6382 17.5374 13.6525L17.2502 13.9971L17.5517 13.5276C15.7837 13.2067 14.1418 12.3943 12.8142 11.1833C8.88072 8.15418 5.32331 4.32114 2.92587 0H9.22526L17.9537 13.608Z" fill="#D3D3D3"/>
<path d="M26.769 0.01437H23.8404C22.8785 0.01437 22.0028 0.516829 21.5147 1.34947L14.0209 13.6669H18.0118L26.769 0.01437Z" fill="#00A6ED"/>
<path d="M18.8726 19.6246L20.0642 22.0939C20.2077 22.381 20.4805 22.5963 20.7963 22.6394L23.4522 23.0413C24.2417 23.1562 24.5719 24.1611 23.9833 24.7353L22.1458 26.5729C21.873 26.8457 21.7869 27.2476 21.9017 27.6209L22.7487 30.0758C23.0358 30.8941 22.2319 31.6693 21.4423 31.3247L18.3701 29.9466C18.2488 29.8899 18.1165 29.8605 17.9825 29.8605C17.8486 29.8605 17.7163 29.8899 17.5949 29.9466L14.5228 31.3247C13.7475 31.6693 12.9292 30.8941 13.2164 30.0758L14.0634 27.6209C14.1926 27.2476 14.0921 26.8457 13.8193 26.5729L11.9817 24.7353C11.4075 24.1611 11.7233 23.1562 12.5129 23.0413L15.1688 22.6394C15.4846 22.5963 15.7574 22.3953 15.9009 22.0939L17.0925 19.6246C17.4801 18.8781 18.5137 18.8781 18.8726 19.6246Z" fill="#D3883E"/>
<path d="M17.9855 40.1967C25.9459 40.1967 32.3989 33.5829 32.3989 25.4245C32.3989 17.266 25.9459 10.6522 17.9855 10.6522C10.0252 10.6522 3.57217 17.266 3.57217 25.4245C3.57217 33.5829 10.0252 40.1967 17.9855 40.1967Z" fill="#AC694E"/>
<path d="M17.9996 38.4165C14.6116 38.4165 11.4246 37.0671 9.04153 34.6122C6.64308 32.1571 5.3074 28.8566 5.32334 25.4244C5.32334 21.9502 6.64409 18.6914 9.04153 16.2366C10.2048 15.0344 11.5979 14.0785 13.1381 13.4256C14.6783 12.7728 16.334 12.4363 18.0068 12.4363C19.6796 12.4363 21.3354 12.7728 22.8756 13.4256C24.4157 14.0785 25.8089 15.0344 26.9721 16.2366C31.9106 21.3042 31.9106 29.5445 26.9721 34.6122C24.5603 37.0671 21.3733 38.4165 17.9996 38.4165ZM17.9853 14.198C15.1859 14.198 12.3721 15.2891 10.2474 17.4855C8.1806 19.6097 7.0309 22.4607 7.04605 25.4244C7.04605 28.4248 8.18018 31.2385 10.2474 33.3632C11.2496 34.4038 12.4514 35.2313 13.7811 35.7962C15.1107 36.3611 16.5406 36.6517 17.9853 36.6507C20.9139 36.6507 23.6559 35.4879 25.7231 33.3632C29.9869 28.9847 29.9869 21.8641 25.7231 17.4855C24.7218 16.4439 23.5201 15.6157 22.1903 15.0507C20.8605 14.4858 19.4301 14.1957 17.9853 14.198Z" fill="#D1957D"/>
<path d="M16.1049 24.8357H17.5451C18.0065 24.8357 18.3868 24.7577 18.686 24.6019C18.9853 24.4398 19.2066 24.2153 19.35 23.9285C19.4997 23.6355 19.5745 23.2957 19.5745 22.9092C19.5745 22.56 19.5059 22.2514 19.3687 21.9833C19.2378 21.709 19.0352 21.497 18.7609 21.3474C18.4865 21.1915 18.1405 21.1136 17.7228 21.1136C17.3923 21.1136 17.0868 21.179 16.8063 21.31C16.5257 21.4409 16.3013 21.6248 16.1329 21.8617C15.9646 22.0986 15.8804 22.3854 15.8804 22.7221H13.1777C13.1777 21.9739 13.3772 21.3224 13.7762 20.7675C14.1815 20.2126 14.7239 19.7793 15.4035 19.4676C16.0831 19.1559 16.8312 19 17.648 19C18.5707 19 19.3781 19.1496 20.0701 19.4489C20.7622 19.7419 21.3015 20.1752 21.688 20.7488C22.0746 21.3224 22.2679 22.0332 22.2679 22.8811C22.2679 23.3113 22.1681 23.729 21.9686 24.1343C21.7691 24.5333 21.4823 24.8949 21.1082 25.2191C20.7404 25.5371 20.2915 25.7927 19.7615 25.986C19.2316 26.173 18.6362 26.2665 17.9753 26.2665H16.1049V24.8357ZM16.1049 26.8838V25.4903H17.9753C18.7172 25.4903 19.3687 25.5745 19.9299 25.7428C20.491 25.9112 20.9617 26.1543 21.342 26.4723C21.7223 26.784 22.0091 27.155 22.2024 27.5852C22.3957 28.0091 22.4923 28.4798 22.4923 28.9973C22.4923 29.6333 22.3707 30.2006 22.1276 30.6994C21.8844 31.1919 21.5415 31.6097 21.0989 31.9526C20.6624 32.2955 20.1512 32.5573 19.5651 32.7381C18.9791 32.9127 18.34 33 17.648 33C17.0744 33 16.5101 32.9221 15.9552 32.7662C15.4066 32.6041 14.9078 32.3641 14.4589 32.0461C14.0163 31.7219 13.6609 31.3166 13.3928 30.8303C13.1309 30.3378 13 29.7548 13 29.0815H15.7027C15.7027 29.4306 15.79 29.7424 15.9646 30.0167C16.1392 30.291 16.3792 30.5061 16.6847 30.662C16.9964 30.8179 17.3425 30.8958 17.7228 30.8958C18.153 30.8958 18.5208 30.8179 18.8263 30.662C19.1381 30.4999 19.375 30.2754 19.5371 29.9886C19.7054 29.6956 19.7896 29.3558 19.7896 28.9693C19.7896 28.4705 19.6992 28.0715 19.5184 27.7722C19.3376 27.4667 19.0788 27.2423 18.7422 27.0989C18.4055 26.9555 18.0065 26.8838 17.5451 26.8838H16.1049Z" fill="#553223"/>
</svg>
