<svg viewBox="0 0 36 41" fill="none" xmlns="http://www.w3.org/2000/svg">
<path d="M19.9063 13.6525C19.6191 13.6238 19.332 13.5951 19.0449 13.5377C17.2648 13.2218 15.5995 12.4179 14.25 11.1833C10.3165 8.1542 5.62209 4.33551 3.22465 0.01437H2.72219C0.640577 0.01437 -0.665815 2.2539 0.353458 4.06275C2.24844 7.40769 4.91865 10.2502 8.13439 12.3461C9.22544 13.1931 10.5749 13.6525 11.9531 13.6525H19.9063Z" fill="#0074BA"/>
<path d="M19.0577 13.3424L18.225 7.49381L14.4781 1.3351C14.0044 0.502459 13.1143 0 12.1524 0H9.02715L17.9494 13.6037C17.8123 13.6224 17.675 13.6387 17.5374 13.6525V13.6669H24.0406C25.4331 13.6669 26.7682 13.2075 27.8593 12.3605C31.0848 10.2694 33.7549 7.42701 35.6402 4.07709C36.6738 2.25388 35.3531 0.0143559 33.2858 0.0143559H32.7834C28.8929 4.07709 24.2559 8.15418 20.3224 11.1833C19.7223 11.7317 19.6276 12.1954 19.5515 12.5686C19.4826 12.8988 19.4295 13.1572 19.0577 13.3439V13.3424Z" fill="#F8312F"/>
<path d="M18.8064 11.5709L19.0648 13.3941C20.6034 13.0117 22.0224 12.2519 23.1936 11.1833C27.1271 8.15418 30.3859 4.3355 32.7834 0.0143559L26.2227 0.0143559L18.8064 11.5709ZM18.5365 13.6525H18.4705L18.7576 13.9971L18.5365 13.6525ZM17.9537 13.608C17.8144 13.6252 17.6752 13.6382 17.5374 13.6525L17.2502 13.9971L17.5517 13.5276C15.7837 13.2067 14.1418 12.3943 12.8142 11.1833C8.88072 8.15418 5.32331 4.32114 2.92587 0H9.22526L17.9537 13.608Z" fill="#D3D3D3"/>
<path d="M26.769 0.01437H23.8404C22.8785 0.01437 22.0028 0.516829 21.5147 1.34947L14.0209 13.6669H18.0118L26.769 0.01437Z" fill="#00A6ED"/>
<path d="M18.8726 19.6246L20.0642 22.0939C20.2077 22.381 20.4805 22.5963 20.7963 22.6394L23.4522 23.0413C24.2417 23.1562 24.5719 24.1611 23.9833 24.7353L22.1458 26.5729C21.873 26.8457 21.7869 27.2476 21.9017 27.6209L22.7487 30.0758C23.0358 30.8941 22.2319 31.6693 21.4423 31.3247L18.3701 29.9466C18.2488 29.8899 18.1165 29.8605 17.9825 29.8605C17.8486 29.8605 17.7163 29.8899 17.5949 29.9466L14.5228 31.3247C13.7475 31.6693 12.9292 30.8941 13.2164 30.0758L14.0634 27.6209C14.1926 27.2476 14.0921 26.8457 13.8193 26.5729L11.9817 24.7353C11.4075 24.1611 11.7233 23.1562 12.5129 23.0413L15.1688 22.6394C15.4846 22.5963 15.7574 22.3953 15.9009 22.0939L17.0925 19.6246C17.4801 18.8781 18.5137 18.8781 18.8726 19.6246Z" fill="#D3883E"/>
<path d="M17.9855 40.1967C25.9459 40.1967 32.3989 33.5829 32.3989 25.4245C32.3989 17.266 25.9459 10.6522 17.9855 10.6522C10.0252 10.6522 3.57217 17.266 3.57217 25.4245C3.57217 33.5829 10.0252 40.1967 17.9855 40.1967Z" fill="#C0C0C0"/>
<path d="M17.9996 38.4165C14.6116 38.4165 11.4246 37.0671 9.04153 34.6122C6.64308 32.1571 5.3074 28.8566 5.32334 25.4244C5.32334 21.9502 6.64409 18.6914 9.04153 16.2366C10.2048 15.0344 11.5979 14.0785 13.1381 13.4256C14.6783 12.7728 16.334 12.4363 18.0068 12.4363C19.6796 12.4363 21.3354 12.7728 22.8756 13.4256C24.4157 14.0785 25.8089 15.0344 26.9721 16.2366C31.9106 21.3042 31.9106 29.5445 26.9721 34.6122C24.5603 37.0671 21.3733 38.4165 17.9996 38.4165ZM17.9853 14.198C15.1859 14.198 12.3721 15.2891 10.2474 17.4855C8.1806 19.6097 7.0309 22.4607 7.04605 25.4244C7.04605 28.4248 8.18018 31.2385 10.2474 33.3632C11.2496 34.4038 12.4514 35.2313 13.7811 35.7962C15.1107 36.3611 16.5406 36.6517 17.9853 36.6507C20.9139 36.6507 23.6559 35.4879 25.7231 33.3632C29.9869 28.9847 29.9869 21.8641 25.7231 17.4855C24.7218 16.4439 23.5201 15.6157 22.1903 15.0507C20.8605 14.4858 19.4301 14.1957 17.9853 14.198Z" fill="#848484"/>
<path d="M22.7156 29.8673V32H13.2749V30.1801L17.7393 25.3934C18.188 24.8942 18.5419 24.455 18.8009 24.0758C19.06 23.6904 19.2464 23.346 19.3602 23.0427C19.4803 22.733 19.5403 22.4392 19.5403 22.1611C19.5403 21.7441 19.4708 21.387 19.3318 21.09C19.1927 20.7867 18.9874 20.5529 18.7156 20.3886C18.4502 20.2243 18.1216 20.1422 17.7299 20.1422C17.3128 20.1422 16.9526 20.2433 16.6493 20.4455C16.3523 20.6477 16.1248 20.9289 15.9668 21.2891C15.8152 21.6493 15.7393 22.0569 15.7393 22.5118H13C13 21.6904 13.1959 20.9384 13.5877 20.2559C13.9795 19.5671 14.5324 19.0205 15.2464 18.6161C15.9605 18.2054 16.8073 18 17.7867 18C18.7536 18 19.5687 18.158 20.2322 18.4739C20.9021 18.7836 21.4076 19.2322 21.7488 19.8199C22.0964 20.4013 22.2701 21.0964 22.2701 21.9052C22.2701 22.3602 22.1975 22.8057 22.0521 23.2417C21.9068 23.6714 21.6983 24.1011 21.4265 24.5308C21.1611 24.9542 20.8389 25.3839 20.4597 25.8199C20.0806 26.2559 19.6603 26.7077 19.1991 27.1754L16.8009 29.8673H22.7156Z" fill="#454545"/>
</svg>
